<svg width="16" height="16" viewBox="0 0 16 16" fill="none" xmlns="http://www.w3.org/2000/svg">
<path fill-rule="evenodd" clip-rule="evenodd" d="M1.33337 3.83331C1.33337 3.55717 1.55723 3.33331 1.83337 3.33331H14.1667C14.4429 3.33331 14.6667 3.55717 14.6667 3.83331C14.6667 4.10946 14.4429 4.33331 14.1667 4.33331H1.83337C1.55723 4.33331 1.33337 4.10946 1.33337 3.83331ZM1.33337 7.99998C1.33337 7.72384 1.55723 7.49998 1.83337 7.49998H14.1667C14.4429 7.49998 14.6667 7.72384 14.6667 7.99998C14.6667 8.27612 14.4429 8.49998 14.1667 8.49998H1.83337C1.55723 8.49998 1.33337 8.27612 1.33337 7.99998ZM1.33337 12.1666C1.33337 11.8905 1.55723 11.6666 1.83337 11.6666H14.1667C14.4429 11.6666 14.6667 11.8905 14.6667 12.1666C14.6667 12.4428 14.4429 8.49998 14.1667 12.6666H1.83337C1.55723 12.6666 1.33337 12.4428 1.33337 12.1666Z" fill="white"/>
</svg>