<svg width="328" height="107" viewBox="0 0 328 107" fill="none" xmlns="http://www.w3.org/2000/svg">
<path d="M0.885986 105.286V0.0932465H41.8551C49.8483 0.0932465 56.6397 1.50605 62.2349 4.33164C67.8302 7.15724 72.0968 11.1307 75.035 16.2632C77.9732 21.3956 79.4451 27.4166 79.4451 34.3371C79.4451 41.2576 77.9512 47.2233 74.9689 52.2344C71.9811 57.2454 67.6593 61.0809 61.9924 63.7409C56.3255 66.401 49.4514 67.731 41.3645 67.731H13.5813V50.2918H37.9081C42.3237 50.2918 45.9454 49.6902 48.7678 48.4926C51.5903 47.2951 53.7015 45.5015 55.1127 43.1284C56.5239 40.7498 57.2296 37.8249 55.12296 34.3371C57.2296 30.8492 56.5239 27.7587 55.1127 25.336S53.7015 22.9133 51.5737 21.0645 48.7292 19.7952 45.8848 18.5259 42.252 17.8912 37.8365 17.8912H22.3959105.292H0.885986V105.286ZM59.3409 105.286L33.7407 57.422H57.0807L83.1715 105.286H59.3354H59.3409Z" fill="white"/>
<path d="M90.0059 105.285V26.3555H111.163V105.285H90.0059Z" fill="white"/>
<path d="M145.248 105.285L116.197 26.3555H138.694L151.952 67.2991C153.55 72.4315 154.951 77.6081 156.147 82.8289C157.343 88.0496 158.578 93.4635 159.851 99.065H155.336C156.56 93.4635 157.756 88.0496 158.931 82.8289C160.105 77.6026 161.494 72.426 163.092 67.2991L176.207 26.3555H198.422L169.3 105.285H145.254H145.248Z" fill="white"/>
<path d="M235.422 106.839C227.385 106.839 220.45 105.194 214.618 101.899C208.786 98.6046 204.31 93.9192 201.184 87.8485C198.058 81.7779 196.493 74.576 196.493 66.2482C196.493 57.9204 198.042 50.9778 201.145 44.8575C204.249 38.7372 208.643 33.9635 214.331 30.5253C220.02 27.0927 226.696 25.3708 234.358 25.3708C239.529 25.3708 244.347 26.1931 248.812 27.8432C253.277 29.4933 257.202 31.9712 260.587 35.2935C263.972 38.6103 266.618 42.7659 268.52 47.7549C270.421 52.7438 271.375 58.6268 271.375 65.4038V71.3364H205.159V58.0639H261.006L251.133 61.5959C251.133 57.501 250.51 53.9358 249.264 50.9005C248.019 47.8652 246.161 45.5142 243.691 43.8421C241.222 42.1699 238.179 41.3365 234.557 41.3365C230.935 41.3365 227.777 42.1864 225.213 43.8807C222.65 45.5749 220.709 47.8707 219.397 50.7626C218.08 53.6544 217.424 56.4056 217.424 60.6798V70.0671C217.424 74.6311 218.185 78.4667 219.717 81.5737C221.244 84.6808 223.383 87.0097 226.134 88.5605C228.885 90.1112 232.093 90.8894 235.759 90.6894C238.25 90.8894 240.505 90.5362 242.528 89.8298C244.551 89.1234 246.277 88.0748 247.71 86.6896C249.143 85.3044 250.235 83.5936 250.99 81.5737L270.168 85.1719C268.9 89.5042 266.689 93.3011 263.542 96.5737C260.394 99.8463 256.453 102.374 251.728 104.162C247.004 105.95 241.563 106.844 235.406 106.844L235.422 106.839Z" fill="white"/>
<path d="M280.541 105.286V26.3571H300.993V40.1208H301.842C303.297 35.2257 305.733 31.5337 309.14 29.0392C312.547 26.5447 316.461 25.2975 320.882 25.2975C321.962 25.2975 323.137 25.3582 324.41 25.4741C325.678 25.59 326.786 25.7666 327.723 26.0039V44.9221C326.78 44.591 325.419 44.3316 323.633 44.144C321.847 43.9564 320.154 43.8625 318.556 43.8625C315.358 43.8625 312.464 44.5579 309.884 45.9431C307.299 47.3338 305.287 49.2599 303.854 51.7323C302.42 54.2047 301.704 57.0855 301.704 60.3802V105.281H280.547L280.541 105.286Z" fill="white"/>
</svg>