<svg width="201" height="201" viewBox="0 0 201 201" fill="none" xmlns="http://www.w3.org/2000/svg">
<path d="M119.273 108.131C133.04 97.683 152.743 96.0726 168.465 102.718C180.917 107.978 190.929 118.414 196.047 130.876C198.487 136.823 199.672 143.125 199.672 149.416H199.684C199.684 158.016 197.433 166.581 193.097 174.174C187.979 183.13 180.229 190.569 170.988 195.166C164.247 198.518 156.76 200.342 149.213 200.342H47.5723C35.7839 199.501 24.2317 194.573 15.2275 185.558C5.28771 175.619 0.311608 162.589 0.311523 149.558V128.009C1.40151 129.265 2.53887 130.498 3.72363 131.682C23.6158 151.572 55.913 157.306 80.876 143.931C88.8731 139.643 95.4603 134.051 101.36 127.192C107.047 120.582 112.272 113.45 119.273 108.131ZM19.1133 11.9497C16.9216 13.7388 17.7863 24.1516 17.9521 26.8999C18.2958 32.3134 19.4566 37.6678 21.3877 42.7378C25.096 52.5109 31.6367 61.0876 40.167 67.1528C56.8128 78.9752 79.6307 80.1832 97.3428 69.9956C106.592 64.6755 118.952 52.2825 128.916 47.2241C138.406 42.4028 147.646 39.9596 158.167 41.5825C168.688 43.2055 179.022 47.7546 186.628 55.3599C196.568 65.2988 200.121 80.1485 200.121 93.1792L200.133 93.1675V106.412C186.721 90.0994 166.62 79.4558 145.732 80.8892C136.716 81.5052 127.822 84.2085 119.801 88.3901C98.9071 97.8611 85.2348 126.882 49.6699 126.882C32.8234 126.882 10.1181 116.447 2.45508 90.5845C-1.2057 78.229 0.311523 64.2384 0.311523 51.4683C0.314632 51.4156 0.78773 43.4 1.73242 39.48C4.32704 28.7355 10.5475 18.9271 19.1133 11.9497ZM134.769 0.347168C146.841 0.311629 159.305 0.347021 170.395 5.08545C179.742 9.06581 187.598 16.292 192.775 25.0464C197.183 32.4857 199.788 41.1574 200.025 49.80169C195.891 45.6471 1911.815 41.5245 186.863 38.1958V163.346 22.3692 134.769 24.9945 107.264 43.9595C89.5219 56.1926 68.87352 48.6389 60.8564 42.0405C53.274 35.691 48.7718 26.4751 47.4922 16.7612C46.9827 12.8993 45.4779 0.685314 51.9111 0.661621C80.535 0.555005 106.145 0.453784 134.769 0.347168Z" fill="white"/>
</svg>