<svg width="16" height="16" viewBox="0 0 16 16" fill="none" xmlns="http://www.w3.org/2000/svg">
<path d="M5.5013 10.8344C5.5013 11.1108 5.72516 11.3346 6.0013 11.3346C6.27744 11.3346 6.5013 11.1108 6.5013 10.8346C6.5013 9.21743 6.85856 8.16712 7.51284 7.51284C8.16712 6.85856 9.21743 6.5013 10.8346 6.5013C11.1108 6.5013 11.3346 6.27744 11.3346 6.0013C11.3346 5.72516 11.1108 5.5013 10.8346 5.5013C9.21743 5.5013 8.16712 5.14404 7.51284 4.48976C6.85856 3.83548 6.5013 2.78517 6.5013 1.16797C6.5013 0.891827 6.27744 0.667969 6.0013 0.667969C5.72516 0.667969 5.5013 0.891827 5.5013 1.16797C5.5013 2.78517 5.14404 3.83548 4.48976 4.48976C3.83548 5.14404 2.78517 5.5013 1.16797 5.5013C0.891827 5.5013 0.667969 5.72516 0.667969 6.0013C0.667969 6.27744 0.891827 6.5013 1.16797 6.5013C2.78517 6.5013 3.83548 6.85856 4.48976 7.51284C5.14404 8.16712 5.5013 9.21743 5.5013 10.8346Z" fill="white"/>
<path d="M11.168 14.8346C11.168 15.1108 11.3918 15.3346 11.668 15.3346C11.9441 15.3346 12.168 15.1108 12.168 14.8346C12.168 13.7961 12.3979 13.1625 12.7802 12.7802C13.1625 12.3979 13.7961 12.168 14.8346 12.168C15.1108 12.168 15.3346 11.9441 15.3346 11.668C15.3346 11.3918 15.1108 11.168 14.8346 11.168C13.7961 11.168 13.1625 10.938 12.7802 10.5557C12.3979 10.1734 12.168 9.5398 12.168 8.5013C12.168 8.22516 11.9441 8.0013 11.668 8.0013C11.3918 8.0013 11.168 8.22516 11.168 8.5013C11.168 9.5398 10.938 10.1734 10.5557 10.5557C10.1734 10.938 9.5398 11.168 8.5013 11.168C8.22516 11.168 8.0013 11.3918 8.0013 11.668C8.0013 11.9441 8.22516 12.168 8.5013 12.168C9.5398 12.168 10.1734 12.3979 10.5557 12.7802C10.938 13.1625 11.168 13.7961 11.168 14.8346Z" fill="white"/>
</svg>